<?xml version="1.0" encoding="UTF-8" standalone="no"?>
<!-- Created with Inkscape (http://www.inkscape.org/) -->

<svg
   width="104.73306mm"
   height="28.366955mm"
   viewBox="0 0 104.73306 28.366955"
   version="1.1"
   id="svg5"
   xml:space="preserve"
   xmlns:xlink="http://www.w3.org/1999/xlink"
   xmlns="http://www.w3.org/2000/svg"
   xmlns:svg="http://www.w3.org/2000/svg"><defs
     id="defs2"><pattern
       patternUnits="userSpaceOnUse"
       width="6"
       height="1"
       patternTransform="translate(0,0) scale(10,10)"
       id="Strips1_5white"><rect
         style="fill:white;stroke:none"
         x="0"
         y="-0.5"
         width="1"
         height="2"
         id="rect7745" /></pattern><pattern
       xlink:href="#Strips1_1white"
       id="pattern11217"
       patternTransform="matrix(5.594406,0,0,10,29.082615,0)" /><pattern
       patternUnits="userSpaceOnUse"
       width="2"
       height="1"
       patternTransform="translate(0,0) scale(10,10)"
       id="Strips1_1white"><rect
         style="fill:white;stroke:none"
         x="0"
         y="-0.5"
         width="1"
         height="2"
         id="rect7715" /></pattern><filter
       style="color-interpolation-filters:sRGB"
       id="filter11271"
       x="-0.12202917"
       y="-0.095223404"
       width="1.2440583"
       height="1.1904469"><feGaussianBlur
         stdDeviation="1.2296694"
         id="feGaussianBlur11273" /></filter><clipPath
       clipPathUnits="userSpaceOnUse"
       id="clipPath11336"><path
         d="m 60.527684,164.07676 c 0.484811,-0.48482 0.697531,-0.97667 0.697531,-1.61282 0,-4.0008 7.154439,-4.22305 7.603818,-0.23621 0.26202,2.32462 2.436889,3.37783 3.91758,1.89714 1.27572,-1.27571 0.436732,-3.84586 -1.256768,-3.84997 -2.237862,-0.005 -3.43018,-1.1085 -3.540911,-3.27586 -0.110638,-2.16551 -1.144551,-3.33865 -2.940259,-3.33626 -1.69299,0.002 -3.219291,1.84207 -2.813971,3.392 0.399172,1.52643 -1.3658,3.2216 -3.354268,3.2216 -1.14862,0 -2.113132,1.02651 -2.113132,2.24895 0,2.04586 2.3476,3.00421 3.80038,1.55143 z m -5.637171,-5.80104 c 0.391092,-0.41629 0.632921,-1.07574 0.717582,-1.95679 0.0916,-0.95358 0.315249,-1.51643 0.791819,-1.993 0.724601,-0.72461 0.73501,-0.72807 2.391312,-0.79762 4.056528,-0.17035 4.203578,-5.68735 0.151588,-5.68735 -2.172791,0 -3.1065,-0.87005 -3.364159,-3.13486 -0.21757,-1.91239 -1.51108,-2.86938 -3.158871,-2.33708 -2.28128,0.73695 -1.62778,4.41361 0.784482,4.41361 2.024779,0 2.993868,1.24183 2.993868,3.83645 0,2.55434 -0.970978,3.83647 -2.90545,3.83647 -1.01758,0 -2.388129,1.24407 -2.382319,2.16246 0.01381,2.17391 2.516111,3.21612 3.980148,1.65771 z m 23.933632,-0.2022 c 0.984168,-1.40511 -0.181031,-3.61797 -1.905061,-3.61797 -3.848801,0 -4.282231,-7.03933 -0.466101,-7.56993 2.09417,-0.29118 3.002,-1.32704 2.63348,-3.0049 -0.58488,-2.66292 -4.21773,-2.01394 -4.539839,0.81102 -0.235652,2.06676 -1.61163,3.43632 -3.069411,3.0551 -1.4758,-0.38592 -3.240539,1.17824 -3.240539,2.87224 0,1.64148 1.892919,3.3658 3.160799,2.87926 1.341192,-0.51466 2.935941,0.92809 3.117789,2.82059 0.253773,2.64105 2.925861,3.72912 4.308883,1.75459 z m -11.748659,-7.37663 c 0.04374,-0.9793 -0.67769,-1.91923 -1.935403,-1.93682 -1.13079,-0.0158 -1.793587,0.88417 -1.837404,1.90596 -0.04413,1.0292 0.887163,2.03001 1.915813,2.0079 1.09664,-0.0236 1.812298,-0.97637 1.856994,-1.97704 z m -0.707051,-3.42595 c 0.986009,-0.44926 1.515459,-1.43456 1.515459,-2.82027 0,-1.93556 0.95264,-3.20683 2.411799,-3.21849 2.6245,-0.021 4.088521,-2.48135 2.45092,-4.11894 -1.432499,-1.43251 -3.848479,-0.42003 -3.848479,1.61282 0,2.06114 -1.226208,3.02941 -3.83646,3.02941 -2.60286,0 -3.836459,-1.0009 -3.836459,-3.11277 0,-1.88084 -2.50254,-2.87541 -3.848481,-1.52946 -1.27571,1.2757 -0.436718,3.84585 1.256771,3.84996 2.268659,0.006 3.422309,1.09975 3.547999,3.36528 0.144452,2.60363 2.02696,3.92661 4.186931,2.94246 z m 6.807261,9.54259 c 0.04374,-0.9793 -0.677688,-1.91923 -1.935401,-1.93682 -1.130792,-0.0158 -1.793589,0.88417 -1.837404,1.90596 -0.04413,1.0292 0.887161,2.03001 1.915811,2.0079 1.096639,-0.0236 1.812298,-0.97637 1.856994,-1.97704 z m -12.216125,0.0157 c 0.04374,-0.9793 -0.677688,-1.91923 -1.935403,-1.93682 -1.13079,-0.0158 -1.793587,0.88417 -1.837402,1.90596 -0.04413,1.0292 0.887161,2.03001 1.915811,2.0079 1.09664,-0.0236 1.812298,-0.97637 1.856994,-1.97704 z m 0.01569,-12.21612 c 0.04374,-0.9793 -0.677691,-1.91923 -1.935404,-1.93682 -1.130792,-0.0158 -1.793589,0.88417 -1.837407,1.90596 -0.04413,1.0292 0.887164,2.03 1.915817,2.0079 1.096637,-0.0236 1.812295,-0.97637 1.856994,-1.97704 z m 12.153397,-0.0314 c 0.04374,-0.97929 -0.677691,-1.91922 -1.935403,-1.93681 -1.13079,-0.0158 -1.793587,0.88416 -1.837405,1.90596 -0.04413,1.0292 0.887164,2.03001 1.915814,2.0079 1.09664,-0.0236 1.812298,-0.97638 1.856994,-1.97705 z"
         style="fill:#ffffff;fill-opacity:1;stroke:none;stroke-width:0.264583"
         id="path11338" /></clipPath><filter
       style="color-interpolation-filters:sRGB"
       id="filter11352"
       x="-0.11995261"
       y="-0.38310435"
       width="1.2399052"
       height="1.7662086"><feGaussianBlur
         stdDeviation="3.653395"
         id="feGaussianBlur11354" /></filter><clipPath
       clipPathUnits="userSpaceOnUse"
       id="clipPath14331"><g
         id="g14369"
         transform="translate(-2.483871,116.03226)"><text
           xml:space="preserve"
           style="font-weight:bold;font-size:3.5px;font-family:Georgia;-inkscape-font-specification:'Georgia Bold';text-align:center;letter-spacing:0px;word-spacing:0.79375px;text-anchor:middle;fill:#ffffff;fill-opacity:1;stroke:none;stroke-width:0.3;stroke-dasharray:none;stroke-opacity:0"
           x="118.05097"
           y="72.120979"
           id="text14335"><tspan
             id="tspan14333"
             style="font-style:normal;font-variant:normal;font-weight:bold;font-stretch:normal;font-size:3.5px;font-family:Arial;-inkscape-font-specification:'Arial Bold';fill:#ffffff;fill-opacity:1;stroke:none;stroke-width:0.3;stroke-opacity:0"
             x="118.05097"
             y="72.120979">EASY TO USE, EASY TO LEARN</tspan></text><g
           id="g14367"
           style="stroke:#ffffff;stroke-opacity:1"><path
             style="fill:none;stroke:#ffffff;stroke-width:0.3;stroke-dasharray:none;stroke-opacity:1"
             d="m 94.495056,59.97604 1.981988,-0.01959 1.147462,-1.145558 h -3.108583 z"
             id="path14337" /><path
             style="fill:none;stroke:#ffffff;stroke-width:0.3;stroke-dasharray:none;stroke-opacity:1"
             d="m 105,63.870966 -1.47581,-0.02217 -2.5504,-4.302419 1.61895,0.02217 c 1.18193,-0.94188 2.34137,-1.887077 0,-3.348789 l -3.459677,-0.02217 -0.754033,-1.264113 4.28024,-0.02217 c 3.45222,1.951612 3.06374,3.903225 0.55444,5.854837 z"
             id="path14339" /><path
             style="fill:none;stroke:#ffffff;stroke-width:0.3;stroke-dasharray:none;stroke-opacity:1"
             d="m 96.715724,61.608871 1.271339,0.42137 c -0.836083,0.925858 -1.519814,1.994672 -3.644746,1.99467 -2.358666,2e-6 -4.477326,-1.422816 -4.679011,-4.500718 0.02904,-2.676153 1.569689,-4.436001 4.679012,-4.607851 1.822373,0.04249 2.336465,0.674201 3.016553,1.236882 l -0.887098,0.95363 c -0.546196,-0.459321 -1.061061,-0.829582 -2.129456,-0.887095 -2.079911,0.07821 -3.171741,1.330665 -3.193124,3.174465 0.117887,2.415536 1.648442,3.075466 3.193124,3.168274 1.151924,0.0028 1.863441,-0.410816 2.373407,-0.953627 z"
             id="path14341" /><path
             style="fill:none;stroke:#ffffff;stroke-width:0.3;stroke-dasharray:none;stroke-opacity:1"
             d="m 106.09677,63.782257 1.41936,0.02217 2.9496,-5.766128 1.44153,2.727822 h 1.33064 l -2.79435,-5.544354 z"
             id="path14343" /><path
             style="fill:none;stroke:#ffffff;stroke-width:0.3;stroke-dasharray:none;stroke-opacity:1"
             d="m 112.77218,62.584676 0.70929,1.37119 h 1.44192 l -0.73186,-1.415545 z"
             id="path14345" /><path
             style="fill:none;stroke:#ffffff;stroke-width:0.3;stroke-dasharray:none;stroke-opacity:1"
             d="m 116.45363,63.955866 h 1.30847 l 0.0443,-3.234092 4.47984,0.02217 -0.0222,-1.197581 h -5.74396 z"
             id="path14347" /><path
             style="fill:none;stroke:#ffffff;stroke-width:0.3;stroke-dasharray:none;stroke-opacity:1"
             d="m 116.60887,54.889473 1.26411,1.285931 4.39113,0.02217 0.0222,-1.308108 z"
             id="path14349" /><path
             style="fill:none;stroke:#ffffff;stroke-width:0.3;stroke-dasharray:none;stroke-opacity:1"
             d="m 134.46169,61.520162 1.21976,-1.264113 -0.0222,-5.366576 h -1.24194 z"
             id="path14351" /><path
             style="fill:none;stroke:#ffffff;stroke-width:0.3;stroke-dasharray:none;stroke-opacity:1"
             d="m 134.66129,63.955866 1.17041,-1.326835 4.30741,0.04435 0.0444,1.282481 z"
             id="path14353" /><path
             style="fill:none;stroke:#ffffff;stroke-width:0.3;stroke-dasharray:none;stroke-opacity:1"
             d="m 128.3254,54.862544 c 2.37018,0.04633 4.44444,2.091587 4.50202,4.506889 -0.0165,2.671753 -2.10601,4.521082 -4.41331,4.559504 -2.0061,0.0054 -4.68389,-1.817477 -4.67944,-4.559504 -0.0139,-2.666976 2.19591,-4.438063 4.59073,-4.506889 z"
             id="path14355" /><path
             style="fill:none;stroke:#ffffff;stroke-width:0.3;stroke-dasharray:none;stroke-opacity:1"
             d="m 128.33864,56.34832 c 2.06292,0.04377 3.09958,1.543222 3.1291,3.074971 -0.0675,1.847898 -1.39844,3.183674 -3.1291,3.227917 -1.79463,-0.04389 -3.11558,-1.55874 -3.12493,-3.254846 -0.007,-1.598032 1.18955,-3.008037 3.12493,-3.048042 z"
             id="path14357" /><path
             style="fill:none;stroke:#ffffff;stroke-width:0.3;stroke-dasharray:none;stroke-opacity:1"
             d="m 146.29288,55.012577 c 2.37018,0.04633 4.44444,2.091587 4.50202,4.506889 -0.0165,2.671753 -2.10601,4.521082 -4.41331,4.559504 -2.0061,0.0054 -4.68389,-1.817477 -4.67944,-4.559504 -0.0139,-2.666976 2.19591,-4.438063 4.59073,-4.506889 z"
             id="path14359" /><path
             style="fill:none;stroke:#ffffff;stroke-width:0.3;stroke-dasharray:none;stroke-opacity:1"
             d="m 146.30612,56.498353 c 2.06292,0.04377 3.09958,1.543222 3.1291,3.074971 -0.0675,1.847898 -1.39844,3.183674 -3.1291,3.227917 -1.79463,-0.04389 -3.11558,-1.55874 -3.12493,-3.254846 -0.007,-1.598032 1.18955,-3.008037 3.12493,-3.048042 z"
             id="path14361" /><path
             style="fill:none;stroke:#ffffff;stroke-width:0.3;stroke-dasharray:none;stroke-opacity:1"
             d="m 156.91866,60.118365 1.98199,-0.01959 1.14746,-1.145558 h -3.10858 z"
             id="path14363" /><path
             style="fill:none;stroke:#ffffff;stroke-width:0.3;stroke-dasharray:none;stroke-opacity:1"
             d="m 159.13933,61.751196 1.27134,0.42137 c -0.83609,0.925858 -1.51982,1.994672 -3.64475,1.99467 -2.35867,2e-6 -4.47733,-1.422816 -4.67901,-4.500718 0.029,-2.676153 1.56969,-4.436001 4.67901,-4.607851 1.82237,0.04249 2.33647,0.674201 3.01655,1.236882 l -0.88709,0.95363 c -0.5462,-0.459321 -1.06107,-0.829582 -2.12946,-0.887095 -2.07991,0.07821 -3.17174,1.330665 -3.19312,3.174465 0.11788,2.415536 1.64844,3.075466 3.19312,3.168274 1.15192,0.0028 1.86344,-0.410816 2.37341,-0.953627 z"
             id="path14365" /></g></g></clipPath></defs><g
     id="layer1"
     transform="translate(-55.677615,-49.377006)"><g
       id="g14377"><g
         id="g11281"
         transform="translate(4.7672683,-87.065374)"
         clip-path="url(#clipPath11336)"><rect
           style="opacity:1;fill:#7d7d7d;fill-opacity:1;stroke:none;stroke-width:0.3;stroke-dasharray:none;stroke-opacity:0"
           id="rect11275"
           width="34.368206"
           height="33.847473"
           x="48.676315"
           y="134.61259" /><rect
           style="opacity:1;mix-blend-mode:normal;fill:url(#pattern11217);fill-opacity:1;stroke:none;stroke-width:0.269366;stroke-dasharray:none;stroke-opacity:0;filter:url(#filter11271)"
           id="rect5340"
           width="24.184437"
           height="30.992451"
           x="53.0294"
           y="135.64406"
           ry="0" /></g><g
         id="g13560"
         transform="translate(2.483871,-116.03226)"
         clip-path="url(#clipPath14331)"><rect
           style="opacity:1;fill:#646464;fill-opacity:1;stroke:none;stroke-width:0.3;stroke-dasharray:none;stroke-opacity:0"
           id="rect11364"
           width="73.892654"
           height="21.201797"
           x="85.810829"
           y="169.23802" /><rect
           style="opacity:1;mix-blend-mode:normal;fill:url(#Strips1_5white);fill-opacity:1;stroke:none;stroke-width:0.3;stroke-dasharray:none;stroke-opacity:0;filter:url(#filter11352)"
           id="rect11340"
           width="73.096764"
           height="22.8871"
           x="83.298393"
           y="170.23387"
           transform="matrix(2.0368556,0,0,1,-130.12255,-0.74903351)" /></g></g></g></svg>
